<svg id="Layer_1" data-name="Layer 1" xmlns="http://www.w3.org/2000/svg" xmlns:xlink="http://www.w3.org/1999/xlink" viewBox="0 0 1200 600"><defs><style>.cls-1{fill:url(#linear-gradient);}.cls-2{fill:url(#linear-gradient-2);}.cls-3{fill:#1c0cc1;}.cls-4{fill:#5e5e5e;}</style><linearGradient id="linear-gradient" x1="453.63" y1="798.35" x2="744.8" y2="798.35" gradientTransform="translate(0 -582)" gradientUnits="userSpaceOnUse"><stop offset="0" stop-color="#6d79ff"/><stop offset="0.53" stop-color="#27ceff"/><stop offset="1" stop-color="#2bd0f8"/></linearGradient><linearGradient id="linear-gradient-2" x1="477.07" y1="791.1" x2="765.58" y2="808.15" gradientTransform="translate(0 -582)" gradientUnits="userSpaceOnUse"><stop offset="0" stop-color="#1cd7ff"/><stop offset="0.12" stop-color="#22d1ff"/><stop offset="0.28" stop-color="#31bffe"/><stop offset="0.45" stop-color="#47a7fd"/><stop offset="0.54" stop-color="#509dfd"/><stop offset="0.83" stop-color="#697ffd"/><stop offset="1" stop-color="#7274fd"/></linearGradient></defs><path class="cls-1" d="M734.29,148c-20.67-16.32-45.52-4.77-45.52-4.77a344.61,344.61,0,0,0-33.38,17.49c-16.49,10-41.92,26.77-41.92,26.77L596.4,199.25h0l-72.13,50a125.16,125.16,0,0,1-35,16.9,2.24,2.24,0,0,1-.76.17c-10,3-17.48,1.17-17.48,1.17-17.07-2.76-14.31-25-14.31-25s-10.71,27.78,7.53,42.09c20.67,16.32,45.52,4.94,45.52,4.94a366.49,366.49,0,0,0,33.38-17.32c16.49-9.71,41.92-26.61,41.92-26.61l48.7-34h0l49.87-34.14c10-5.94,26.18-10.71,26.18-10.71,10-3,17.49-1.17,17.49-1.17,17.07,2.76,14.31,25,14.31,25S752.36,162.35,734.29,148Z"/><path class="cls-2" d="M731.11,166.19c12.88,6.2.42,24,.42,24-9,18.66-24.85,35.39-33.39,42.5-8.37,7.12-18.07,10.55-25,8.37S651,224.43,651,224.43l-11.12-10.54h0s-9.71-9.12-21.42-20.25l-11.55-11h0c-15.06-14.31-30.21-28.37-31.8-30.21-3.34-3.34-24.43-22.42-48.27-7.36s-40.67,44.35-52.21,61.83a177.16,177.16,0,0,0-17.32,35.56c-1.76,20.42,10.79,24,10.79,24-12.89-6.2-1-24.85-1-24.85,13.72-20.42,25.6-34.56,34-41.67s18.07-10.54,25-8.37,22.09,16.65,22.09,16.65l11.55,11h0s1.42,1.17,3.6,3.35L593,250.37h0c15.06,14.31,29.95,28.36,31.79,29.95,3.35,3.35,24.43,22.26,48.28,7.37s40.75-44.27,52-62A176.08,176.08,0,0,0,742.4,190C743.66,170,731.11,166.19,731.11,166.19Z"/><path class="cls-3" d="M645.94,319.23a13.65,13.65,0,0,0-4.72,7.55c-.6,3.26-.17,6.09,1.63,8.15a9.27,9.27,0,0,0,7.29,3.09,13.19,13.19,0,0,0,12.71-10.38c.6-3.26.17-6.1-1.64-8.16C657.52,315.62,650.83,315.36,645.94,319.23Z"/><path class="cls-3" d="M457.49,346.34c-5.93-2.83-15.11-3.69-26.09-2.4-3.09.43-6.35,1-9.36,1.63a71.91,71.91,0,0,0-8.92,2.4,68.62,68.62,0,0,0-8,3.09l-.77.43-14.51,69.09h19.57l12.18-57.67a40.52,40.52,0,0,1,6.53-1.46c6.35-1,12.18-.77,15.27.43a6.26,6.26,0,0,1,3.26,2.4,8.24,8.24,0,0,1,1,3.69,17,17,0,0,1-.43,4.72l-9.95,47.63h19.57L467.1,371.4c1.2-6.09,1.2-11.41-.17-15.44A19.09,19.09,0,0,0,457.49,346.34Z"/><path class="cls-3" d="M521.68,405.82a39.24,39.24,0,0,1-6.53,1.45c-6.35,1-12.18.78-15.27-.42a6.27,6.27,0,0,1-3.26-2.41,8.24,8.24,0,0,1-1-3.69A17,17,0,0,1,496,396l10-47.63H486.41l-10.22,48.92c-1.2,6.09-1.2,11.41.18,15.45a15.92,15.92,0,0,0,8.92,9.78c4,2.06,9.78,3.09,16.91,3.09a70.32,70.32,0,0,0,9.18-.6c3.09-.43,6.35-1,9.35-1.63a70.36,70.36,0,0,0,8.93-2.41,66.86,66.86,0,0,0,8-3.08l1-.43,14.5-69.09H533.69Z"/><path class="cls-3" d="M610.33,345.57c-3.27-1.2-7.3-1.8-12.62-2.06a45.12,45.12,0,0,0-10,1.2,34.88,34.88,0,0,0-10,4,28,28,0,0,0-8.32,7.29,25.55,25.55,0,0,0-4.89,11,22.46,22.46,0,0,0,0,10.21,14.65,14.65,0,0,0,4.46,7.12,24.12,24.12,0,0,0,7,4c2.4.78,4.89,1.64,7.12,2.24,2.23.77,4.46,1.63,6.52,2.4a10,10,0,0,1,4,2.66c.43.43.77,1.2.6,3.09-.43,2.06-1.63,3.43-3.86,4.89a16.38,16.38,0,0,1-8.93,2.23,51.79,51.79,0,0,1-8-.77,23.2,23.2,0,0,1-6.35-2.66c-2.06-1.2-4-2.4-6.09-3.86l-2.84-2.06-4,19.13,1.46.78a73.59,73.59,0,0,0,10,4.29,41.3,41.3,0,0,0,13.21,1.8,46.19,46.19,0,0,0,14.68-2.4,35.72,35.72,0,0,0,13-7.73,27.4,27.4,0,0,0,7.55-14.07,19.67,19.67,0,0,0-.17-10.81,17.16,17.16,0,0,0-4.72-7h0a21.2,21.2,0,0,0-7.12-3.87l-7-2.4c-2.41-.77-4.47-1.46-6.53-2.23a9.24,9.24,0,0,1-3.69-2.4c-.17-.18-1-1.2-.43-3.44a6.22,6.22,0,0,1,3.69-4.46,19.24,19.24,0,0,1,8.59-1.8,20.86,20.86,0,0,1,9.18,1.8c2.66,1.2,5.49,2.83,8.58,4.46l2.83,1.63,3.44-17.5-1.46-.77C616.16,348.15,613.33,346.77,610.33,345.57Z"/><polygon class="cls-3" points="622.51 420.49 642.08 420.49 657.78 345.31 638.39 345.31 622.51 420.49"/><path class="cls-3" d="M695.63,361.79H713l3.44-16.9H699.06l4-19.74H683.36l-15.71,74.31c-1.63,7.3-.6,13.05,3.09,16.91,3.43,3.86,8.75,5.92,15.88,5.92a34.69,34.69,0,0,0,6.52-.6,36.52,36.52,0,0,0,6.52-1.8l1-.43,4-19-4.29,2.24a17.72,17.72,0,0,1-3.86,1.45,16.39,16.39,0,0,1-4.46.61c-1.2,0-3.43-.18-4-1.21-.43-.77-.78-2.4,0-5.92Z"/><path class="cls-3" d="M787.71,364.45a23.61,23.61,0,0,0-8.15-15.7c-4.47-3.69-10.82-5.67-19-5.67-11,0-20.17,3.44-27.72,10.22s-12.61,16.47-15.27,29.34c-1.81,8.33-1.81,15.71,0,21.63a23.6,23.6,0,0,0,10.21,13.82c4.89,3.09,11.24,4.72,18.54,4.72a70.66,70.66,0,0,0,26.86-5.15l1.2-.43,4-19.4-4,1.81c-1.8.77-4,1.63-6.52,2.66a49.72,49.72,0,0,1-8,2.06,41.55,41.55,0,0,1-8.75.77c-6.52,0-10.81-1.63-13-5.06-1.81-2.66-2.41-6.53-2.06-11.59h49.69l.42-1.8A61.59,61.59,0,0,0,787.71,364.45Zm-47.63,8.41a29.69,29.69,0,0,1,1.8-3.69,19.22,19.22,0,0,1,6.7-7.12,18.57,18.57,0,0,1,9.18-2.06c5.06,0,8.32,1.2,10,3.86,1.2,2.06,1.63,4.89,1.46,8.93l-29.09.08Z"/><path class="cls-4" d="M416.55,459l4-23.6H424L420,459Z"/><path class="cls-4" d="M427.54,459.19a2.65,2.65,0,0,1-1.46-.43,1.4,1.4,0,0,1-.43-1.2,2.07,2.07,0,0,1,2.23-2.23,2.65,2.65,0,0,1,1.46.43,1.41,1.41,0,0,1,.43,1.2,2.07,2.07,0,0,1-2.23,2.23Z"/><path class="cls-4" d="M433.63,459l3.69-20.59H430l.61-3.09h18.1l-.6,3.09h-7.29L437.15,459Z"/><path class="cls-4" d="M468.9,459.45a12.62,12.62,0,0,1-5.49-1.2,8.09,8.09,0,0,1-3.69-3.69,10.93,10.93,0,0,1-1.46-5.32,15.6,15.6,0,0,1,1.8-7.55A11.21,11.21,0,0,1,465,436.8a14,14,0,0,1,7.3-1.64,10.84,10.84,0,0,1,4.29.78,13.69,13.69,0,0,1,3.69,2.06l-1.8,2.4a15.27,15.27,0,0,0-3.09-1.63,9.52,9.52,0,0,0-3.69-.6,10.11,10.11,0,0,0-5.07,1.2,8.44,8.44,0,0,0-3.43,3.69A14,14,0,0,0,462,449a7.78,7.78,0,0,0,.77,3.86,7.18,7.18,0,0,0,2.4,2.41,7.53,7.53,0,0,0,3.69.77,11.34,11.34,0,0,0,3.69-.6,15.29,15.29,0,0,0,3.44-1.63l.77,2.83a12.2,12.2,0,0,1-3.86,1.8A6.84,6.84,0,0,1,468.9,459.45Z"/><path class="cls-4" d="M488.89,459.45a8.5,8.5,0,0,1-4-1,5.72,5.72,0,0,1-2.66-2.66,7.17,7.17,0,0,1-1-3.69,11.36,11.36,0,0,1,1.2-5.32,8.79,8.79,0,0,1,3.44-3.43,11.21,11.21,0,0,1,5.32-1.2,8.38,8.38,0,0,1,4,1,5.67,5.67,0,0,1,2.66,2.66,7.17,7.17,0,0,1,1,3.69,11.36,11.36,0,0,1-1.2,5.32,8.77,8.77,0,0,1-3.43,3.43A15.86,15.86,0,0,1,488.89,459.45Zm.43-3.09a5.78,5.78,0,0,0,3.27-.77,10.11,10.11,0,0,0,2.23-2.4,6.94,6.94,0,0,0,.77-3.69,4.47,4.47,0,0,0-1.2-3.26,4,4,0,0,0-3.26-1.21,6.08,6.08,0,0,0-3.26.78,6.6,6.6,0,0,0-2.24,2.4,7.12,7.12,0,0,0-.77,3.69,4.48,4.48,0,0,0,1.2,3.26A4.05,4.05,0,0,0,489.32,456.36Z"/><path class="cls-4" d="M501.94,459l2.83-16.73H508l-.43,2.06a5.57,5.57,0,0,1,2.41-1.81,7.51,7.51,0,0,1,3.26-.6,7,7,0,0,1,3.09.6c.77.43,1.46.78,1.63,1.46a4,4,0,0,1,.6,2.24,15.41,15.41,0,0,1-.17,2.66l-1.81,10.38h-3.43l1.63-9.61A5.33,5.33,0,0,0,515,448c0-.6-.17-1-.17-1.46a2.38,2.38,0,0,0-1-1,4.65,4.65,0,0,0-1.8-.43,4.76,4.76,0,0,0-3.43,1.2,8.09,8.09,0,0,0-1.81,3.86l-1.63,8.93h-3.17Z"/><path class="cls-4" d="M528.2,459.45a11.43,11.43,0,0,1-3.69-.6,14.55,14.55,0,0,1-3.09-1.8l1.8-2.4a27.43,27.43,0,0,1,2.4,1.63,5.41,5.41,0,0,0,2.66.6,5.84,5.84,0,0,0,3.09-.6,1.86,1.86,0,0,0,1-1.81,1.42,1.42,0,0,0-.43-1,3.94,3.94,0,0,0-1.63-.6l-2.83-.6a4.36,4.36,0,0,1-3.09-1.63,4,4,0,0,1-1-2.66,5,5,0,0,1,1.81-4,8.18,8.18,0,0,1,5.32-1.63,9,9,0,0,1,3.43.6,5.59,5.59,0,0,1,2.66,1.63l-1.63,2.4a14.43,14.43,0,0,0-2.06-1.2,4.76,4.76,0,0,0-2.4-.43,4.5,4.5,0,0,0-2.66.6,2.15,2.15,0,0,0-1,1.63,1.45,1.45,0,0,0,.42,1,3.37,3.37,0,0,0,1.46.6l2.84.43a4.59,4.59,0,0,1,3.26,1.63,4.38,4.38,0,0,1,1,2.83,4.89,4.89,0,0,1-2.06,4.3A16,16,0,0,1,528.2,459.45Z"/><path class="cls-4" d="M545.88,459.45a6.69,6.69,0,0,1-3.86-1,4.23,4.23,0,0,1-1.64-2.4,10.47,10.47,0,0,1,0-3.26l1.81-10.39h3.26l-1.63,9.79c0,.43-.17,1-.17,1.46s.17,1,.17,1.45.6.78,1,1a4.81,4.81,0,0,0,2.06.43,4.76,4.76,0,0,0,3.43-1.2,8.08,8.08,0,0,0,1.8-3.86l1.63-8.93h3.43l-2.83,16.74h-3.26l.43-2.06a5.58,5.58,0,0,1-2.4,1.8A15.18,15.18,0,0,1,545.88,459.45Z"/><path class="cls-4" d="M559.78,459l4-23.6h3.26L563,459Z"/><path class="cls-4" d="M575.23,459.19a5.11,5.11,0,0,1-2.06-.43,3.49,3.49,0,0,1-1.46-1,2.25,2.25,0,0,1-.6-1.63,4.19,4.19,0,0,1,0-2.06l1.63-8.92h-3.69l.43-2.83h3.69l.77-4.72h3.26l-.77,4.72h4.29l-.43,2.83H576l-1.63,8.75v1.46c0,.43.43.6.6.77a2.79,2.79,0,0,0,1.2.18h1c.43,0,.6,0,.77-.18l-.43,2.66c-.43,0-.77.18-1.2.18C576.26,459.19,575.66,459.19,575.23,459.19Z"/><path class="cls-4" d="M582,459l2.83-16.73h3.26L585.27,459Zm5.23-20.17a2.73,2.73,0,0,1-1.46-.42,1.27,1.27,0,0,1-.43-1.21,2.07,2.07,0,0,1,2.23-2.23,2.65,2.65,0,0,1,1.46.43,1.41,1.41,0,0,1,.43,1.2,2.25,2.25,0,0,1-.6,1.63A2.13,2.13,0,0,1,587.24,438.85Z"/><path class="cls-4" d="M590.5,459l2.83-16.73h3.26l-.42,2.06a5.54,5.54,0,0,1,2.4-1.81,7.51,7.51,0,0,1,3.26-.6,7,7,0,0,1,3.09.6c.77.43,1.46.78,1.63,1.46a4,4,0,0,1,.6,2.24,15.41,15.41,0,0,1-.17,2.66l-1.8,10.38h-3.44l1.63-9.61a5,5,0,0,0,.18-1.63c0-.6-.18-1-.18-1.46a2.38,2.38,0,0,0-1-1,4.61,4.61,0,0,0-1.8-.43,4.76,4.76,0,0,0-3.43,1.2,8.08,8.08,0,0,0-1.8,3.86l-1.63,8.93h-3.09V459Z"/><path class="cls-4" d="M617.19,465.72a8.2,8.2,0,0,1-3.86-.78,8.89,8.89,0,0,1-3.26-2.23l1.46-2.23a6.9,6.9,0,0,0,2.83,1.63,6.71,6.71,0,0,0,2.83.6,7.9,7.9,0,0,0,3.09-.6,5.76,5.76,0,0,0,2.23-1.63,6.29,6.29,0,0,0,1.2-3.09l.43-1.8a5.58,5.58,0,0,1-2.4,1.8,8.45,8.45,0,0,1-3.43.6,6.2,6.2,0,0,1-3.44-.77,7.15,7.15,0,0,1-2.4-2.4,6.75,6.75,0,0,1-.77-3.44,10.35,10.35,0,0,1,1.2-4.89,7.83,7.83,0,0,1,3.26-3.43,10.35,10.35,0,0,1,4.89-1.2,6.2,6.2,0,0,1,3.44.77,5.57,5.57,0,0,1,2.23,2.23l.43-2.66h3.26l-2.66,14.85c-.6,3.09-1.63,5.32-3.26,6.69A12.07,12.07,0,0,1,617.19,465.72Zm2.06-10.39a5.51,5.51,0,0,0,2.66-.6,3.86,3.86,0,0,0,1.8-1.46,13.54,13.54,0,0,0,1.2-2.06,11.22,11.22,0,0,0,.43-2.4,3.95,3.95,0,0,0-2.23-3.69,4.35,4.35,0,0,0-2.23-.6,5.51,5.51,0,0,0-2.66.6,3.86,3.86,0,0,0-1.8,1.46,14.43,14.43,0,0,0-1.2,2.06,11.87,11.87,0,0,0-.43,2.4,3.42,3.42,0,0,0,.6,2.06,3.92,3.92,0,0,0,1.63,1.46A5.83,5.83,0,0,0,619.25,455.33Z"/><path class="cls-4" d="M641.05,459l4-23.6h3.43L644.82,456h11l-.43,3.26h-14.5V459Z"/><path class="cls-4" d="M660,459l2.84-16.73h3.26L663.27,459Zm5.32-20.17a2.67,2.67,0,0,1-1.45-.42,1.27,1.27,0,0,1-.43-1.21,2.07,2.07,0,0,1,2.23-2.23,2.65,2.65,0,0,1,1.46.43,1.41,1.41,0,0,1,.43,1.2,2.09,2.09,0,0,1-2.24,2.23Z"/><path class="cls-4" d="M668.6,459l2.83-16.73h3.26l-.43,1.8a4.44,4.44,0,0,1,2.23-1.63,6,6,0,0,1,2.83-.43,5.14,5.14,0,0,1,2.83.6,5.49,5.49,0,0,1,1.63,1.8,7.47,7.47,0,0,1,2.41-2.06,8.45,8.45,0,0,1,3.43-.6,6.85,6.85,0,0,1,3.09.6,5,5,0,0,1,1.63,1.63,4,4,0,0,1,.6,2.24,11.41,11.41,0,0,1-.17,2.4L693,459h-3.44l1.81-9.78a3.24,3.24,0,0,0,0-1.8,4.64,4.64,0,0,0-.6-1.63c-.18-.43-1-.6-2.06-.6a4.43,4.43,0,0,0-3.26,1.2,6.7,6.7,0,0,0-1.64,3.86l-1.63,8.92h-2.83l1.8-9.78a6,6,0,0,0,0-1.8c-.17-.6-.17-1.2-.6-1.63a2.69,2.69,0,0,0-2.06-.6,4.5,4.5,0,0,0-3.26,1.2,6.7,6.7,0,0,0-1.63,3.86l-1.63,8.93h-3.43V459Z"/><path class="cls-4" d="M698.72,459l2.83-16.73h3.26L702,459ZM704,438.85a2.73,2.73,0,0,1-1.46-.42,1.27,1.27,0,0,1-.43-1.21,2.07,2.07,0,0,1,2.23-2.23,2.65,2.65,0,0,1,1.46.43,1.41,1.41,0,0,1,.43,1.2,2.07,2.07,0,0,1-2.23,2.23Z"/><path class="cls-4" d="M714.16,459.19a5.15,5.15,0,0,1-2.06-.43,3.39,3.39,0,0,1-1.45-1,2.25,2.25,0,0,1-.61-1.63,4.19,4.19,0,0,1,0-2.06l1.64-8.92H708l.42-2.83h3.69l.78-4.72h3.26l-.77,4.72h4.29l-.43,2.83h-4.29l-1.63,8.75v1.46c0,.43.42.6.6.77a2.79,2.79,0,0,0,1.2.18h1c.43,0,.6,0,.77-.18l-.43,2.66c-.43,0-.77.18-1.2.18C715.19,459.19,714.76,459.19,714.16,459.19Z"/><path class="cls-4" d="M729.27,459.45a9.6,9.6,0,0,1-4.29-1,5.72,5.72,0,0,1-2.66-2.66,7.12,7.12,0,0,1-.78-3.69,12.48,12.48,0,0,1,1.21-5.49,8.77,8.77,0,0,1,3.43-3.43,10.24,10.24,0,0,1,4.89-1.21,7,7,0,0,1,5.06,1.81,6.61,6.61,0,0,1,1.81,4.89,4.07,4.07,0,0,1-.18,1.46c-.17.43-.43,1-.6,1.46H725a8.48,8.48,0,0,0,.17,2.06,7.07,7.07,0,0,0,.77,1.63,5.52,5.52,0,0,0,1.63,1,8.67,8.67,0,0,0,2.23.42,13.13,13.13,0,0,0,3.09-.42,10.25,10.25,0,0,0,2.66-1.46l.77,2.66a19.45,19.45,0,0,1-3.26,1.63C731.76,459.19,730.47,459.45,729.27,459.45Zm-4-10.38h9.36a5.4,5.4,0,0,0,.17-.78,3.63,3.63,0,0,0-1-2.66,4,4,0,0,0-2.83-.77,5,5,0,0,0-2.4.6,7,7,0,0,0-2.06,1.46A3.35,3.35,0,0,0,725.23,449.07Z"/><path class="cls-4" d="M748.23,459.45a7.17,7.17,0,0,1-3.69-1,6.06,6.06,0,0,1-2.4-2.66,7.51,7.51,0,0,1-.77-3.69,11.36,11.36,0,0,1,1.2-5.32,7.83,7.83,0,0,1,3.26-3.43,10.23,10.23,0,0,1,4.89-1.2,6.73,6.73,0,0,1,3.43.77,4.33,4.33,0,0,1,2.06,2.23l1.63-9.78h3.44l-4,23.6H754l.43-2.24a9.37,9.37,0,0,1-2.4,2.06A21.85,21.85,0,0,1,748.23,459.45Zm1-3.09a6.12,6.12,0,0,0,3.26-.77,6.77,6.77,0,0,0,2.24-2.4,7.12,7.12,0,0,0,.77-3.69,4.47,4.47,0,0,0-1.2-3.26,4.34,4.34,0,0,0-3.26-1.21,6.14,6.14,0,0,0-3.27.78,6.57,6.57,0,0,0-2.23,2.4,7.12,7.12,0,0,0-.77,3.69,4.48,4.48,0,0,0,1.2,3.26A4.34,4.34,0,0,0,749.26,456.36Z"/></svg>